<svg width="65" height="65" viewBox="0 0 65 65" fill="none" xmlns="http://www.w3.org/2000/svg">
<circle cx="32.8781" cy="32.1121" r="30.5" fill="white" stroke="black" stroke-width="3"/>
<path d="M39.3498 20.6403C39.688 20.9787 39.878 21.4375 39.878 21.916C39.878 22.3944 39.688 22.8533 39.3498 23.1916L30.4184 32.123L39.3498 41.0543C39.6784 41.3946 39.8603 41.8503 39.8562 42.3234C39.8521 42.7965 39.6623 43.2491 39.3278 43.5836C38.9933 43.9181 38.5407 44.1079 38.0676 44.112C37.5945 44.1161 37.1388 43.9342 36.7985 43.6056L26.5915 33.3986C26.2533 33.0602 26.0632 32.6014 26.0632 32.123C26.0632 31.6445 26.2533 31.1857 26.5915 30.8473L36.7985 20.6403C37.1368 20.3021 37.5957 20.1121 38.0741 20.1121C38.5526 20.1121 39.0114 20.3021 39.3498 20.6403Z" fill="black"/>
</svg>
