<svg width="65" height="65" viewBox="0 0 65 65" fill="none" xmlns="http://www.w3.org/2000/svg">
<circle cx="32.8781" cy="32.1121" r="31.5" fill="#172C5D" stroke="white"/>
<path d="M26.5915 20.6403C26.2533 20.9787 26.0632 21.4375 26.0632 21.916C26.0632 22.3944 26.2533 22.8533 26.5915 23.1916L35.5228 32.123L26.5915 41.0543C26.2628 41.3946 26.081 41.8503 26.0851 42.3234C26.0892 42.7965 26.279 43.2491 26.6135 43.5836C26.948 43.9181 27.4006 44.1079 27.8737 44.112C28.3467 44.1161 28.8025 43.9342 29.1428 43.6056L39.3498 33.3986C39.688 33.0602 39.8781 32.6014 39.8781 32.123C39.8781 31.6445 39.688 31.1857 39.3498 30.8473L29.1428 20.6403C28.8044 20.3021 28.3456 20.1121 27.8672 20.1121C27.3887 20.1121 26.9299 20.3021 26.5915 20.6403Z" fill="white"/>
</svg>
